<svg width="1000" height="1000" viewBox="0 0 1000 1000" fill="none" xmlns="http://www.w3.org/2000/svg">
<g clip-path="url(#clip0_2_242)">
<rect width="1000" height="1000" rx="100" fill="url(#paint0_linear_2_242)"/>
<path d="M682.936 349.181C669.573 350.104 640.781 376.29 632.214 385.407C592.713 427.415 578.55 499.393 587.965 555.19C617.897 552.005 647.228 535.68 668.495 518.574C652.04 457.769 652.133 403.792 682.936 349.181Z" fill="white"/>
<path d="M844.247 445.776C836.573 416.291 824.668 386.859 808.342 358.046C792.811 330.634 775.44 308.839 753.726 284.549C753.592 284.493 753.459 284.436 753.327 284.38C747.561 277.44 741.184 270.882 734.262 264.778C735.355 270.238 736.381 275.695 737.348 281.164C737.335 281.163 737.322 281.162 737.309 281.162C743.431 351.489 742.556 484.92 688.573 537.01C672.206 552.791 647.924 564.793 624.7 571.625C614.866 574.522 604.41 576.342 594.835 579.759C568.243 589.256 565.434 611.006 567.381 634.053C569.568 659.906 580.635 690.052 577.105 715.185C574.999 730.185 565.527 740.623 557.449 753.165C547.88 768.026 541.355 788.6 546.184 806.432C546.288 806.831 546.394 807.229 546.509 807.626C598.936 870.475 640.901 839.602 693.376 806.275C823.565 723.595 880.44 584.057 844.247 445.776ZM745.301 286.273C745.283 286.226 745.264 286.18 745.248 286.135C745.265 286.18 745.284 286.227 745.302 286.275L745.301 286.273ZM744.953 285.165C744.965 285.228 744.978 285.293 744.996 285.361C744.978 285.291 744.963 285.225 744.951 285.16C744.951 285.162 744.952 285.163 744.953 285.165Z" fill="white"/>
<path d="M317.643 237.783C331.006 238.706 359.798 264.892 368.365 274.009C407.866 316.017 422.029 387.995 412.614 443.793C382.682 440.608 353.35 424.283 332.084 407.176C348.539 346.372 348.446 292.395 317.643 237.783Z" fill="white"/>
<path d="M156.331 334.384C164.005 304.897 175.91 275.464 192.237 246.649C207.768 219.237 225.14 197.441 246.853 173.151C246.987 173.096 247.119 173.038 247.252 172.982C253.018 166.042 259.395 159.484 266.317 153.38C265.223 158.841 264.197 164.297 263.231 169.766C263.244 169.765 263.257 169.764 263.27 169.764C257.148 240.091 258.023 373.522 312.006 425.612C328.373 441.393 352.655 453.396 375.88 460.227C385.714 463.125 396.169 464.944 405.744 468.362C432.336 477.858 435.146 499.609 433.198 522.655C431.011 548.508 419.943 578.655 423.473 603.787C425.579 618.787 435.051 629.225 443.13 641.768C452.701 656.632 459.227 677.214 454.391 695.05C454.288 695.444 454.182 695.837 454.069 696.229C401.642 759.078 359.677 728.205 307.202 694.879C177.015 612.199 120.141 472.663 156.331 334.384ZM255.278 174.877C255.296 174.829 255.314 174.782 255.331 174.737C255.314 174.783 255.295 174.83 255.276 174.878L255.278 174.877ZM255.629 173.759C255.619 173.812 255.605 173.866 255.592 173.922C255.606 173.864 255.62 173.809 255.63 173.755L255.629 173.759Z" fill="white"/>
</g>
<defs>
<linearGradient id="paint0_linear_2_242" x1="1000" y1="1000" x2="0" y2="0" gradientUnits="userSpaceOnUse">
<stop stop-color="#A2040B"/>
<stop offset="1" stop-color="#F94864"/>
</linearGradient>
<clipPath id="clip0_2_242">
<rect width="1000" height="1000" fill="white"/>
</clipPath>
</defs>
</svg>
